<svg version="1.2" xmlns="http://www.w3.org/2000/svg" viewBox="0 0 24 24" width="24" height="24">
	<title>chart-histogram-svg</title>
	<style>
		.s0 { fill: #ffffff } 
	</style>
	<path id="Layer" class="s0" d="m24 22v2h-21q-0.6 0-1.1-0.3-0.6-0.2-1-0.6-0.4-0.4-0.7-1-0.2-0.5-0.2-1.1v-21h2v21q0 0.2 0.1 0.4 0.1 0.1 0.2 0.3 0.1 0.1 0.3 0.2 0.2 0.1 0.4 0.1z"/>
	<path id="Layer" class="s0" d="m5 12h2v7h-2z"/>
	<path id="Layer" class="s0" d="m10 10h2v9h-2z"/>
	<path id="Layer" class="s0" d="m15 13h2v6h-2z"/>
	<path id="Layer" class="s0" d="m20 9h2v10h-2z"/>
	<path id="Layer" class="s0" d="m11 4.4l-4.3 4.3-1.4-1.4 5.7-5.7 5 5 6.3-6.3 1.4 1.4-7.7 7.7-5-5z"/>
</svg>